PathFileType	4	(X/Y/Z)	C:/Users/opensim2020/Desktop/walking_exp_matlab/subject06_walking12_straigt_01.trc	
DataRate	CameraRate	NumFrames	NumMarkers	Units	OrigDataRate	OrigDataStartFrame	OrigNumFrames	
100.00	100.00	8	48	mm	100.00	819	196	
Frame#	Time	LFHD			RFHD			LBHD			RBHD			C7			T10			CLAV			STRN			RBAK			LSHO			LUPA			LELB			LFRM			LWRA			LWRB			LFIN			RSHO			RUPA			RELB			RFRM			RWRA			RWRB			RFIN			LASI			RASI			LPSI			RPSI			LTHI			LKNE			LTIB			LANK			LHEE			LTOE			RTHI			RKNE			RTIB			RANK			RHEE			RTOE			*39			*40			*41			*42			*43			*44			*45			*46			*47			
		X1	Y1	Z1	X2	Y2	Z2	X3	Y3	Z3	X4	Y4	Z4	X5	Y5	Z5	X6	Y6	Z6	X7	Y7	Z7	X8	Y8	Z8	X9	Y9	Z9	X10	Y10	Z10	X11	Y11	Z11	X12	Y12	Z12	X13	Y13	Z13	X14	Y14	Z14	X15	Y15	Z15	X16	Y16	Z16	X17	Y17	Z17	X18	Y18	Z18	X19	Y19	Z19	X20	Y20	Z20	X21	Y21	Z21	X22	Y22	Z22	X23	Y23	Z23	X24	Y24	Z24	X25	Y25	Z25	X26	Y26	Z26	X27	Y27	Z27	X28	Y28	Z28	X29	Y29	Z29	X30	Y30	Z30	X31	Y31	Z31	X32	Y32	Z32	X33	Y33	Z33	X34	Y34	Z34	X35	Y35	Z35	X36	Y36	Z36	X37	Y37	Z37	X38	Y38	Z38	X39	Y39	Z39	X40	Y40	Z40	X41	Y41	Z41	X42	Y42	Z42	X43	Y43	Z43	X44	Y44	Z44	X45	Y45	Z45	X46	Y46	Z46	X47	Y47	Z47	X48	Y48	Z48	

25	0.240	-1091.11243	-638.18890	1629.10742	-961.48645	-649.41730	1612.61646	-1104.72144	-778.21863	1594.53796	-975.44434	-786.82996	1583.47083	-1055.81787	-805.45392	1431.85608	-1042.48364	-867.41125	1105.08203	-1048.29895	-702.55182	1343.96533	-1056.66089	-676.93964	1166.96667	-983.81042	-897.57605	1266.16492	-1210.69373	-741.69910	1385.56189	-1297.83301	-713.24432	1193.36011	-1321.53479	-689.81116	1085.41113	-1329.36877	-588.99066	974.64044	-1262.11438	-487.56290	916.31891	-1312.98914	-520.04285	878.55591	-1296.44214	-438.13803	843.51093	-890.10919	-757.51953	1380.12073	-809.62317	-830.33716	1189.31689	-796.59003	-840.67029	1067.91675	-775.45795	-856.75439	949.05957	-794.52905	-834.92224	796.82550	-761.35370	-891.18054	815.13300	-753.62482	-876.97437	731.59491	-1156.37854	-701.96143	933.97144	-934.59796	-689.10590	941.37677	-1116.23987	-858.02631	970.51147	-947.98071	-841.13293	968.33569	-1206.84473	-823.02209	634.53174	-1187.11353	-864.37701	474.11353	-1179.07922	-979.26587	240.38911	-1132.45422	-1036.31897	77.34653	-1085.21826	-1078.21948	70.69994	-1139.25964	-899.85675	31.73631	-862.98566	-678.67639	616.60260	-890.27893	-629.11926	502.45828	-889.36761	-563.56268	254.86961	-928.56830	-484.50684	86.32999	-978.91315	-509.69452	71.15454	-929.28290	-320.41284	44.68330	-1038.15063	-736.93170	1679.08630																								 
26	0.250	-1089.77271	-629.01898	1628.52100	-960.02106	-640.63818	1611.78833	-1103.28772	-768.64551	1593.27417	-973.98499	-777.20374	1581.96436	-1054.59656	-795.15601	1430.66699	-1041.80652	-856.53815	1103.75647	-1047.39575	-692.12750	1342.86230	-1055.92126	-666.42499	1165.81018	-982.81677	-886.95972	1264.62415	-1209.84351	-731.65790	1384.54651	-1297.12195	-703.57239	1192.48535	-1320.54895	-679.96478	1084.32581	-1328.72778	-579.04419	973.81647	-1261.76868	-477.43597	915.65845	-1312.55176	-509.97665	877.84192	-1296.14673	-427.93759	843.06750	-888.98755	-746.82776	1378.55847	-808.88525	-819.51166	1187.63403	-795.78400	-829.84033	1066.22974	-774.74872	-846.11499	947.38763	-794.19379	-824.79736	794.96106	-760.59631	-880.82916	813.47168	-753.06049	-866.67615	729.96515	-1155.55969	-691.40601	932.63367	-933.67065	-678.08087	940.25635	-1115.57495	-847.29626	969.30969	-947.27155	-830.36621	967.42426	-1206.30786	-813.37909	633.63727	-1186.12231	-856.34613	473.19022	-1179.37671	-974.87665	241.66536	-1133.24646	-1035.27209	79.69743	-1086.41736	-1077.22449	73.59809	-1139.44690	-899.60553	31.72646	-862.88605	-666.25031	616.54755	-889.75854	-616.36230	502.83118	-889.37933	-554.74872	252.95837	-929.57446	-478.21207	83.75635	-979.73401	-503.69980	69.38572	-930.30334	-314.72470	39.51547	-1036.60876	-727.73260	1677.94214																								 
27	0.260	-1088.44983	-619.62341	1628.25488	-958.51367	-631.01459	1611.16626	-1101.74341	-758.98877	1592.29077	-972.52716	-767.38562	1580.68250	-1053.23999	-784.88776	1429.65125	-1040.96472	-845.56616	1102.67688	-1046.31287	-681.54553	1342.05200	-1055.10962	-655.52643	1165.01758	-981.67670	-876.24652	1263.37903	-1208.76318	-721.48047	1383.69189	-1295.99866	-693.88763	1191.48083	-1319.64697	-670.29218	1083.50598	-1327.89380	-569.57690	972.84497	-1261.35864	-467.66949	914.65234	-1311.98059	-500.37064	876.91193	-1295.98938	-418.38162	842.13953	-887.75867	-736.03217	1377.27112	-807.88208	-808.41992	1186.10132	-794.84418	-818.79388	1064.70776	-773.93848	-835.14075	945.85724	-793.56366	-814.13110	793.43958	-759.79022	-870.18024	811.93311	-752.42194	-855.97443	728.45325	-1154.66724	-680.41833	931.46735	-932.44275	-666.87061	939.18817	-1114.77832	-836.34869	968.31244	-946.64178	-819.12720	966.65454	-1205.71594	-803.50262	632.79773	-1185.83752	-847.02155	472.56921	-1179.59290	-970.01117	243.16391	-1134.09998	-1034.00671	82.39381	-1087.37146	-1076.37134	77.17879	-1139.47961	-899.37152	31.70762	-862.39221	-653.75885	617.06860	-889.15076	-603.97345	503.33322	-889.72021	-546.94495	250.93054	-931.08270	-473.82254	81.13562	-980.84094	-498.94855	65.00007	-931.79840	-309.74750	35.82714	-1034.97815	-718.50323	1676.98694																								 
28	0.270	-1086.90796	-610.26062	1628.15088	-956.76038	-621.33527	1610.81909	-1100.07471	-749.19159	1591.50818	-970.86053	-757.58624	1579.67700	-1051.79871	-774.39398	1428.83997	-1040.06909	-834.27155	1101.82910	-1045.09521	-670.83612	1341.48401	-1054.21704	-644.57770	1164.38904	-980.51355	-865.41565	1262.31921	-1207.63635	-711.05554	1383.22266	-1294.84656	-684.06506	1190.75635	-1318.45288	-660.75201	1082.74683	-1327.18958	-560.30225	971.78711	-1260.94690	-458.24631	913.39270	-1311.45569	-491.39609	875.67810	-1296.03235	-409.43155	840.73932	-886.41980	-725.24329	1376.18213	-806.81012	-797.19318	1184.85632	-793.87378	-807.53210	1063.38806	-773.02600	-823.97485	944.54791	-792.81152	-802.99695	792.19775	-759.35400	-858.41461	810.55444	-751.63263	-844.82269	727.16016	-1153.74622	-669.40222	930.61511	-931.34192	-655.51086	938.43396	-1113.89868	-825.29230	967.56763	-945.74799	-807.77295	966.14398	-1205.00269	-793.21960	631.89532	-1185.17737	-837.36957	471.74997	-1179.57178	-964.57861	244.72589	-1135.03760	-1032.44531	85.36807	-1088.52954	-1075.15527	81.16507	-1139.48975	-899.03992	31.72433	-861.81934	-641.44293	617.94031	-888.69641	-591.97961	504.09885	-890.51050	-539.94244	248.94672	-932.47034	-470.91318	78.27003	-980.54163	-497.86166	60.54670	-934.00177	-305.91263	34.20656	-1033.19104	-709.14746	1676.27466																								 
29	0.280	-1085.04688	-600.46008	1628.50122	-955.11432	-611.52118	1610.86194	-1098.31458	-739.40283	1591.05481	-969.14130	-747.69019	1579.02405	-1050.21289	-763.93408	1428.43005	-1039.17578	-822.93561	1101.28552	-1043.76831	-660.07764	1341.25098	-1053.12939	-633.47601	1164.16870	-979.27765	-854.50201	1261.57727	-1206.34302	-700.40594	1383.13354	-1293.48254	-674.38477	1190.21191	-1317.14575	-651.34961	1082.17542	-1326.31201	-551.55310	970.59668	-1260.51965	-449.36591	911.74817	-1310.83240	-483.05847	874.14490	-1295.97314	-401.08597	838.89209	-884.90143	-714.31671	1375.42639	-805.43835	-786.03815	1183.82349	-792.69421	-796.11066	1062.35718	-772.01654	-812.42725	943.45032	-792.11182	-791.70721	791.06445	-757.92950	-846.88849	809.83319	-750.68054	-833.48230	726.12402	-1152.79993	-658.23108	929.99573	-930.26331	-643.75714	938.17950	-1112.95996	-813.89575	967.02338	-944.68414	-796.37738	966.11401	-1204.12158	-782.77191	631.07990	-1184.58545	-826.45746	471.23581	-1179.47949	-958.62531	246.52472	-1135.88135	-1030.50720	88.83488	-1089.74292	-1073.50598	85.61807	-1139.53467	-898.53381	31.84769	-861.22076	-629.24744	618.95795	-888.47400	-580.17719	505.14291	-891.44250	-533.36609	247.39284	-934.62476	-469.60110	74.99602	-981.83020	-497.30548	55.89064	-936.08429	-303.74255	33.23923	-1031.28333	-699.77466	1675.97217																								 
30	0.290	-1083.26599	-590.78192	1629.13696	-953.18866	-601.73865	1611.28235	-1096.56384	-729.42957	1591.00208	-967.34064	-737.64856	1578.71838	-1048.54944	-753.29651	1428.39209	-1038.27917	-811.39410	1101.05835	-1042.30469	-649.17297	1341.41919	-1052.04077	-622.35931	1164.29663	-977.92047	-843.51923	1261.15588	-1204.97449	-690.06409	1382.91064	-1291.96338	-664.42731	1189.93298	-1315.61035	-642.02649	1081.61475	-1325.37061	-543.01740	969.38220	-1260.14771	-440.93729	909.81128	-1310.12720	-475.20206	872.49677	-1296.00830	-393.61319	836.65405	-883.32349	-703.38922	1375.08057	-804.20923	-774.51794	1183.10144	-791.54181	-784.43512	1061.60645	-771.02826	-800.50549	942.65503	-791.22852	-779.94281	790.26782	-756.93481	-835.41821	808.79150	-749.84985	-821.38293	725.27191	-1151.88086	-646.92053	929.74780	-929.23553	-631.89410	938.52777	-1111.99194	-802.43774	966.85742	-943.68842	-784.84424	966.53412	-1202.99121	-771.86200	630.44769	-1183.55200	-815.55396	470.59836	-1179.16187	-952.20984	248.65938	-1136.65759	-1028.18579	92.80554	-1090.69702	-1071.52673	90.73412	-1139.62793	-897.84528	32.10721	-860.63647	-617.25861	619.98621	-888.55737	-568.62921	506.62137	-892.15479	-526.68555	246.57460	-936.96051	-469.53891	72.09086	-984.14880	-497.26157	51.48346	-937.99335	-303.25278	32.59409	-1029.31958	-690.24152	1676.02527																								 
31	0.300	-1081.30542	-580.96869	1630.13269	-951.26117	-591.77710	1612.07385	-1094.64612	-719.40137	1591.35791	-965.42493	-727.57709	1578.88098	-1046.82642	-742.62213	1428.87390	-1037.33459	-799.83289	1101.29321	-1040.82532	-638.29388	1342.00903	-1050.73547	-610.93884	1164.90710	-976.52258	-832.44489	1261.17712	-1203.45679	-679.18335	1383.50317	-1290.28711	-654.66205	1190.04663	-1313.95959	-632.98987	1081.64233	-1324.33911	-535.08868	968.23737	-1259.58398	-433.56305	907.38629	-1309.48206	-468.23169	870.69208	-1296.11328	-386.83990	834.12402	-881.69171	-692.44092	1375.09607	-802.79950	-763.01672	1182.77441	-790.21912	-772.58765	1061.25159	-769.82306	-788.55945	942.25726	-790.26080	-767.77765	789.93945	-756.01184	-822.79309	808.58685	-748.79047	-809.13666	724.96326	-1150.94763	-635.50183	929.80841	-928.09338	-620.06360	939.30621	-1111.03430	-790.78564	967.02582	-942.68671	-773.34253	967.60352	-1201.70020	-760.62048	629.98438	-1182.29224	-804.00739	470.14178	-1178.76855	-945.32794	251.19502	-1137.28076	-1025.40466	97.34167	-1091.51282	-1069.01379	96.55149	-1139.67432	-896.86182	32.62994	-860.37964	-605.36829	621.13446	-889.44586	-556.81036	508.33640	-892.85736	-520.22736	246.25215	-938.61841	-469.75800	69.80872	-985.28583	-498.07117	48.17618	-939.92059	-303.42902	32.32890	-1027.30469	-680.61841	1676.47571																								 
32	0.310	-1079.34229	-571.18372	1631.42236	-949.17896	-581.87494	1613.22168	-1092.79871	-709.35388	1592.12341	-963.43365	-717.45929	1579.44202	-1045.08716	-731.80554	1429.51880	-1036.32336	-788.23206	1101.87842	-1039.20349	-627.30719	1342.93481	-1049.46777	-599.62427	1165.83752	-975.09796	-821.22247	1261.54651	-1201.82373	-668.37469	1384.36841	-1288.49243	-644.72546	1190.55042	-1312.13513	-623.80847	1081.73242	-1323.13269	-527.45575	967.25525	-1259.19336	-426.38058	904.99078	-1308.66797	-461.85095	868.70313	-1296.19617	-380.90106	831.25714	-880.04083	-681.56293	1375.56213	-801.41089	-751.38458	1182.85925	-788.97961	-760.52338	1061.35034	-768.62610	-776.19391	942.24982	-789.34161	-755.26703	790.01178	-754.93439	-810.66797	808.25458	-747.77203	-796.36267	724.95331	-1149.94104	-623.98096	930.19501	-927.37073	-608.13544	940.81445	-1110.14478	-779.04633	967.55298	-941.93750	-761.59332	969.18640	-1200.19885	-748.86884	629.77527	-1181.31677	-791.87048	469.90359	-1178.21729	-937.76300	254.11070	-1137.73193	-1022.12134	102.50139	-1092.20630	-1065.78186	103.12604	-1139.65662	-897.80737	31.75774	-860.30347	-593.92053	622.39813	-890.55438	-545.04437	509.91248	-893.36273	-514.48810	246.22997	-939.26678	-469.50806	68.12295	-985.71960	-498.42401	45.41266	-941.34045	-303.28445	32.36338	-1024.99377	-670.71826	1677.27637																								 
